<?xml version="1.0" encoding="UTF-8" standalone="no"?>
<!DOCTYPE svg PUBLIC "-//W3C//DTD SVG 1.1//EN"
 "http://www.w3.org/Graphics/SVG/1.1/DTD/svg11.dtd">
<!-- Generated by graphviz version 2.40.1 (20161225.0304)
 -->
<!-- Title: %3 Pages: 1 -->
<svg width="190pt" height="392pt"
 viewBox="0.00 0.00 189.85 392.00" xmlns="http://www.w3.org/2000/svg" xmlns:xlink="http://www.w3.org/1999/xlink">
<g id="graph0" class="graph" transform="scale(1 1) rotate(0) translate(4 388)">
<title>%3</title>
<polygon fill="#ffffff" stroke="transparent" points="-4,4 -4,-388 185.846,-388 185.846,4 -4,4"/>
<!-- Douarnenez -->
<g id="node1" class="node">
<title>Douarnenez</title>
<ellipse fill="none" stroke="#000000" cx="119.846" cy="-366" rx="53.0913" ry="18"/>
<text text-anchor="middle" x="119.846" y="-362.3" font-family="Times,serif" font-size="14.00" fill="#000000">Douarnenez</text>
</g>
<!-- Pouldreuzic -->
<g id="node2" class="node">
<title>Pouldreuzic</title>
<ellipse fill="none" stroke="#000000" cx="86.846" cy="-279" rx="52.7911" ry="18"/>
<text text-anchor="middle" x="86.846" y="-275.3" font-family="Times,serif" font-size="14.00" fill="#000000">Pouldreuzic</text>
</g>
<!-- Douarnenez&#45;&#45;Pouldreuzic -->
<g id="edge1" class="edge">
<title>Douarnenez&#45;&#45;Pouldreuzic</title>
<path fill="none" stroke="#ff0000" stroke-width="3" d="M113.0084,-347.9735C107.3448,-333.0422 99.3361,-311.9283 93.6749,-297.0034"/>
</g>
<!-- Douarnenez&#45;&#45;Pouldreuzic -->
<g id="edge4" class="edge">
<title>Douarnenez&#45;&#45;Pouldreuzic</title>
<path fill="none" stroke="#000000" d="M113.0084,-347.9735C107.3448,-333.0422 99.3361,-311.9283 93.6749,-297.0034"/>
<text text-anchor="middle" x="112.846" y="-318.8" font-family="Times,serif" font-size="14.00" fill="#000000">17</text>
</g>
<!-- Plomelin -->
<g id="node5" class="node">
<title>Plomelin</title>
<ellipse fill="none" stroke="#000000" cx="125.846" cy="-18" rx="42.7926" ry="18"/>
<text text-anchor="middle" x="125.846" y="-14.3" font-family="Times,serif" font-size="14.00" fill="#000000">Plomelin</text>
</g>
<!-- Douarnenez&#45;&#45;Plomelin -->
<g id="edge5" class="edge">
<title>Douarnenez&#45;&#45;Plomelin</title>
<path fill="none" stroke="#000000" d="M125.0742,-347.8646C137.5148,-304.7115 167.846,-199.5 167.846,-199.5 167.846,-199.5 140.6501,-81.9748 130.0267,-36.0665"/>
<text text-anchor="middle" x="174.846" y="-188.3" font-family="Times,serif" font-size="14.00" fill="#000000">25</text>
</g>
<!-- Plouneour -->
<g id="node3" class="node">
<title>Plouneour</title>
<ellipse fill="none" stroke="#000000" cx="77.846" cy="-192" rx="46.5926" ry="18"/>
<text text-anchor="middle" x="77.846" y="-188.3" font-family="Times,serif" font-size="14.00" fill="#000000">Plouneour</text>
</g>
<!-- Pouldreuzic&#45;&#45;Plouneour -->
<g id="edge2" class="edge">
<title>Pouldreuzic&#45;&#45;Plouneour</title>
<path fill="none" stroke="#ff0000" stroke-width="3" d="M84.9812,-260.9735C83.4366,-246.0422 81.2524,-224.9283 79.7084,-210.0034"/>
</g>
<!-- Plouneour&#45;&#45;Pouldreuzic -->
<g id="edge6" class="edge">
<title>Plouneour&#45;&#45;Pouldreuzic</title>
<path fill="none" stroke="#000000" d="M79.7084,-210.0034C81.2524,-224.9283 83.4366,-246.0422 84.9812,-260.9735"/>
<text text-anchor="middle" x="87.346" y="-231.8" font-family="Times,serif" font-size="14.00" fill="#000000">9</text>
</g>
<!-- LaTorche -->
<g id="node4" class="node">
<title>LaTorche</title>
<ellipse fill="none" stroke="#000000" cx="44.846" cy="-105" rx="44.6926" ry="18"/>
<text text-anchor="middle" x="44.846" y="-101.3" font-family="Times,serif" font-size="14.00" fill="#000000">LaTorche</text>
</g>
<!-- Plouneour&#45;&#45;LaTorche -->
<g id="edge3" class="edge">
<title>Plouneour&#45;&#45;LaTorche</title>
<path fill="none" stroke="#ff0000" stroke-width="3" d="M71.0084,-173.9735C65.3448,-159.0422 57.3361,-137.9283 51.6749,-123.0034"/>
</g>
<!-- Plouneour&#45;&#45;Plomelin -->
<g id="edge7" class="edge">
<title>Plouneour&#45;&#45;Plomelin</title>
<path fill="none" stroke="#000000" d="M88.4988,-174.3564C102.64,-150.935 125.846,-112.5 125.846,-112.5 125.846,-112.5 125.846,-63.6812 125.846,-36.2206"/>
<text text-anchor="middle" x="132.846" y="-101.3" font-family="Times,serif" font-size="14.00" fill="#000000">11</text>
</g>
<!-- LaTorche&#45;&#45;Plouneour -->
<g id="edge9" class="edge">
<title>LaTorche&#45;&#45;Plouneour</title>
<path fill="none" stroke="#000000" d="M51.6749,-123.0034C57.3361,-137.9283 65.3448,-159.0422 71.0084,-173.9735"/>
<text text-anchor="middle" x="70.846" y="-144.8" font-family="Times,serif" font-size="14.00" fill="#000000">10</text>
</g>
<!-- LaTorche&#45;&#45;Plomelin -->
<g id="edge8" class="edge">
<title>LaTorche&#45;&#45;Plomelin</title>
<path fill="none" stroke="#000000" d="M60.849,-87.8116C75.1416,-72.4603 95.9542,-50.106 110.1519,-34.8567"/>
<text text-anchor="middle" x="97.846" y="-57.8" font-family="Times,serif" font-size="14.00" fill="#000000">20</text>
</g>
</g>
</svg>
